<svg width="425" height="440" xmlns="http://www.w3.org/2000/svg" xmlns:xlink="http://www.w3.org/1999/xlink" overflow="hidden"><defs><filter id="fx0" x="-10%" y="-10%" width="120%" height="120%" filterUnits="userSpaceOnUse" primitiveUnits="userSpaceOnUse"><feComponentTransfer color-interpolation-filters="sRGB"><feFuncR type="discrete" tableValues="0 0"/><feFuncG type="discrete" tableValues="0 0"/><feFuncB type="discrete" tableValues="0 0"/><feFuncA type="linear" slope="0.0509804" intercept="0"/></feComponentTransfer><feGaussianBlur stdDeviation="0 0"/></filter><filter id="fx1" x="-10%" y="-10%" width="120%" height="120%" filterUnits="userSpaceOnUse" primitiveUnits="userSpaceOnUse"><feComponentTransfer color-interpolation-filters="sRGB"><feFuncR type="discrete" tableValues="0 0"/><feFuncG type="discrete" tableValues="0 0"/><feFuncB type="discrete" tableValues="0 0"/><feFuncA type="linear" slope="0.301961" intercept="0"/></feComponentTransfer><feGaussianBlur stdDeviation="0.888889 0.888889"/></filter><filter id="fx2" x="-10%" y="-10%" width="120%" height="120%" filterUnits="userSpaceOnUse" primitiveUnits="userSpaceOnUse"><feComponentTransfer color-interpolation-filters="sRGB"><feFuncR type="discrete" tableValues="0 0"/><feFuncG type="discrete" tableValues="0 0"/><feFuncB type="discrete" tableValues="0 0"/><feFuncA type="linear" slope="0.501961" intercept="0"/></feComponentTransfer><feGaussianBlur stdDeviation="4.44444 4.44444"/></filter><filter id="fx3" x="-10%" y="-10%" width="120%" height="120%" filterUnits="userSpaceOnUse" primitiveUnits="userSpaceOnUse"><feComponentTransfer color-interpolation-filters="sRGB"><feFuncR type="discrete" tableValues="0 0"/><feFuncG type="discrete" tableValues="0 0"/><feFuncB type="discrete" tableValues="0 0"/><feFuncA type="linear" slope="0.501961" intercept="0"/></feComponentTransfer><feGaussianBlur stdDeviation="4.44444 4.44444"/></filter><filter id="fx4" x="-10%" y="-10%" width="120%" height="120%" filterUnits="userSpaceOnUse" primitiveUnits="userSpaceOnUse"><feComponentTransfer color-interpolation-filters="sRGB"><feFuncR type="discrete" tableValues="0 0"/><feFuncG type="discrete" tableValues="0 0"/><feFuncB type="discrete" tableValues="0 0"/><feFuncA type="linear" slope="0.501961" intercept="0"/></feComponentTransfer><feGaussianBlur stdDeviation="4.44444 4.44444"/></filter><clipPath id="clip5"><rect x="422" y="137" width="425" height="440"/></clipPath><clipPath id="clip6"><path d="M640.5 171.5C536.118 171.5 451.5 256.118 451.5 360.5 451.5 464.882 536.118 549.5 640.5 549.5 744.882 549.5 829.5 464.882 829.5 360.5 829.5 256.118 744.882 171.5 640.5 171.5ZM422 137 847 137 847 577 422 577Z" fill-rule="evenodd" clip-rule="evenodd"/></clipPath><clipPath id="clip7"><rect x="1" y="1" width="383" height="383"/></clipPath><clipPath id="clip8"><rect x="0" y="0" width="385" height="385"/></clipPath><radialGradient cx="-6350.25" cy="-6350.25" r="5109766" fx="-6350" fy="-6350" gradientUnits="userSpaceOnUse" spreadMethod="pad" id="stroke9" gradientTransform="matrix(0.000104987 0 0 0.000104987 451.5 171.5)"><stop offset="0" stop-color="#10A19D"/><stop offset="0.52" stop-color="#10A19D"/><stop offset="0.97" stop-color="#540375"/><stop offset="1" stop-color="#540375"/></radialGradient><linearGradient x1="451.5" y1="171.5" x2="829.5" y2="549.5" gradientUnits="userSpaceOnUse" spreadMethod="reflect" id="fill10"><stop offset="0" stop-color="#10A19D"/><stop offset="0.19" stop-color="#10A19D"/><stop offset="0.92" stop-color="#540375"/><stop offset="1" stop-color="#540375"/></linearGradient><clipPath id="clip11"><rect x="51" y="68" width="242" height="216"/></clipPath><clipPath id="clip12"><rect x="0" y="0" width="361" height="336"/></clipPath><clipPath id="clip13"><path d="M3.52571 186.032 149.179 117.747 217.464 263.4 71.8107 331.685Z" fill-rule="evenodd" clip-rule="evenodd"/></clipPath><clipPath id="clip14"><path d="M3.52571 186.032 149.179 117.747 217.464 263.4 71.8107 331.685Z" fill-rule="evenodd" clip-rule="evenodd"/></clipPath><clipPath id="clip15"><path d="M3.52571 186.032 149.179 117.747 217.464 263.4 71.8107 331.685Z" fill-rule="evenodd" clip-rule="evenodd"/></clipPath><clipPath id="clip16"><path d="M72.2049 95.1519 265.966 4.31304 356.805 198.074 163.044 288.913Z" fill-rule="evenodd" clip-rule="evenodd"/></clipPath><clipPath id="clip17"><path d="M72.2049 95.1519 265.966 4.31304 356.805 198.074 163.044 288.913Z" fill-rule="evenodd" clip-rule="evenodd"/></clipPath><clipPath id="clip18"><path d="M72.2049 95.1519 265.966 4.31304 356.805 198.074 163.044 288.913Z" fill-rule="evenodd" clip-rule="evenodd"/></clipPath><clipPath id="clip19"><path d="M476.275 321.853 620.486 254.244 688.094 398.455 543.883 466.064Z" fill-rule="evenodd" clip-rule="evenodd"/></clipPath><clipPath id="clip20"><path d="M476.275 321.853 620.486 254.244 688.095 398.455 543.884 466.064Z" fill-rule="evenodd" clip-rule="evenodd"/></clipPath><clipPath id="clip21"><path d="M476.275 321.853 620.486 254.244 688.095 398.455 543.884 466.064Z" fill-rule="evenodd" clip-rule="evenodd"/></clipPath><clipPath id="clip22"><path d="M544.274 231.873 736.116 141.934 826.056 333.776 634.213 423.716Z" fill-rule="evenodd" clip-rule="evenodd"/></clipPath><clipPath id="clip23"><path d="M544.274 231.873 736.116 141.934 826.056 333.776 634.213 423.716Z" fill-rule="evenodd" clip-rule="evenodd"/></clipPath><clipPath id="clip24"><path d="M544.274 231.873 736.116 141.934 826.056 333.776 634.213 423.716Z" fill-rule="evenodd" clip-rule="evenodd"/></clipPath><radialGradient cx="4029683" cy="2541557" r="4764227" gradientUnits="userSpaceOnUse" spreadMethod="pad" id="fill25" gradientTransform="matrix(0.000103392 -1.82308e-05 1.82308e-05 0.000103392 408.847 346.516)"><stop offset="0" stop-color="#333F50"/><stop offset="0.88" stop-color="#404040"/><stop offset="1" stop-color="#404040"/></radialGradient><clipPath id="clip26"><rect x="-2" y="-2" width="38" height="46"/></clipPath><clipPath id="clip27"><rect x="0" y="0" width="33" height="41"/></clipPath><clipPath id="clip28"><rect x="-2" y="-2" width="221" height="119"/></clipPath><clipPath id="clip29"><rect x="0" y="0" width="218" height="116"/></clipPath><clipPath id="clip30"><rect x="-2" y="-2" width="218" height="116"/></clipPath><clipPath id="clip31"><rect x="0" y="0" width="213" height="114"/></clipPath><clipPath id="clip32"><path d="M685.851 252.927 714.488 266.292 701.123 294.93 672.486 281.564Z" fill-rule="evenodd" clip-rule="evenodd"/></clipPath><clipPath id="clip33"><path d="M685.851 252.927 714.488 266.292 701.123 294.93 672.486 281.564Z" fill-rule="evenodd" clip-rule="evenodd"/></clipPath><clipPath id="clip34"><path d="M685.851 252.927 714.488 266.292 701.123 294.93 672.486 281.564Z" fill-rule="evenodd" clip-rule="evenodd"/></clipPath><clipPath id="clip35"><path d="M577.094 334.202 600.218 348.386 586.033 371.51 562.91 357.325Z" fill-rule="evenodd" clip-rule="evenodd"/></clipPath><clipPath id="clip36"><path d="M577.094 334.202 600.218 348.386 586.033 371.51 562.91 357.325Z" fill-rule="evenodd" clip-rule="evenodd"/></clipPath><clipPath id="clip37"><path d="M577.094 334.202 600.218 348.386 586.033 371.51 562.91 357.325Z" fill-rule="evenodd" clip-rule="evenodd"/></clipPath></defs><g clip-path="url(#clip5)" transform="translate(-422 -137)"><g clip-path="url(#clip6)"><g clip-path="url(#clip7)" filter="url(#fx0)" transform="translate(448 168)"><g clip-path="url(#clip8)"><path d="M1.61005 192.5C1.61005 87.0744 87.0744 1.61005 192.5 1.61005 297.926 1.61005 383.39 87.0744 383.39 192.5 383.39 297.926 297.926 383.39 192.5 383.39 87.0744 383.39 1.61005 297.926 1.61005 192.5Z" stroke="#FF0000" stroke-miterlimit="8" fill="#FF0000" fill-rule="evenodd"/></g></g></g><path d="M451.5 360.5C451.5 256.118 536.118 171.5 640.5 171.5 744.882 171.5 829.5 256.118 829.5 360.5 829.5 464.882 744.882 549.5 640.5 549.5 536.118 549.5 451.5 464.882 451.5 360.5Z" stroke="url(#stroke9)" stroke-width="1.33333" stroke-miterlimit="8" fill="url(#fill10)" fill-rule="evenodd"/><g clip-path="url(#clip11)" filter="url(#fx1)" transform="translate(471 136)"><g clip-path="url(#clip12)"><g clip-path="url(#clip13)"><g clip-path="url(#clip14)"><g clip-path="url(#clip15)"><path d="M-351.97 106.922C-361.983 111.617-374.017 107.265-378.712 97.2513-383.406 87.2376-379.055 75.2036-369.041 70.509-359.027 65.8144-346.993 70.1664-342.299 80.1801-337.604 90.1937-341.956 102.228-351.97 106.922ZM-324.875 58.1314C-327.35 55.2203-330.209 52.6743-333.23 50.574L-334.772 37.4166-347.474 32.8229-357.075 41.9507C-360.892 41.7043-364.718 41.8326-368.483 42.4871L-378.621 34.285-390.758 39.9754-391.09 53.0855C-394.001 55.5607-396.547 58.4199-398.647 61.4403L-411.804 62.9821-416.398 75.6846-407.27 85.2855C-407.517 89.1024-407.388 92.9287-406.734 96.6934L-414.936 106.831-409.245 118.969-396.135 119.3C-393.66 122.211-390.801 124.757-387.781 126.857L-386.239 140.015-373.536 144.608-363.935 135.481C-360.118 135.727-356.292 135.599-352.528 134.944L-342.238 143.075-330.1 137.385-329.769 124.275C-326.858 121.8-324.312 118.94-322.212 115.92L-309.054 114.378-304.461 101.676-313.589 92.0747C-313.342 88.2578-313.47 84.4315-314.125 80.6668L-305.994 70.3774-311.684 58.2397-324.875 58.1314Z" stroke="#10A19D" stroke-width="0.674488" stroke-linecap="round" stroke-dasharray="0 1.34898" fill="#F2F2F2"/></g></g></g><g clip-path="url(#clip16)"><g clip-path="url(#clip17)"><g clip-path="url(#clip18)"><path d="M-245.14 34.8331C-258.461 41.0783-274.47 35.2889-280.715 21.9678-286.96 8.64678-281.171-7.36197-267.85-13.6071-254.529-19.8523-238.52-14.0629-232.275-0.741871-226.03 12.5792-231.819 28.5879-245.14 34.8331ZM-209.097-30.073C-212.389-33.9456-216.193-37.3326-220.211-40.1265L-222.262-57.6297-239.16-63.7407-251.932-51.5981C-257.01-51.9258-262.1-51.7552-267.108-50.8845L-280.594-61.7957-296.741-54.2258-297.181-36.7855C-301.054-33.4928-304.441-29.6892-307.235-25.6711L-324.738-23.6202-330.849-6.7221-318.706 6.04989C-319.034 11.1274-318.863 16.2176-317.993 21.2257L-328.904 34.7117-321.334 50.8585-303.894 51.299C-300.601 55.1716-296.797 58.5585-292.779 61.3525L-290.728 78.8557-273.83 84.9667-261.058 72.824C-255.981 73.1517-250.891 72.9812-245.882 72.1104L-232.195 82.927-216.048 75.3571-215.607 57.9169C-211.735 54.6241-208.348 50.8205-205.554 46.8025L-188.051 44.7516-181.94 27.8534-194.082 15.0815C-193.755 10.0039-193.925 4.91377-194.796-0.0943222L-183.979-13.7822-191.549-29.9289-209.097-30.073Z" stroke="#10A19D" stroke-width="0.897265" stroke-linecap="round" stroke-dasharray="0 1.79453" fill="#F2F2F2"/></g></g></g></g></g><g clip-path="url(#clip19)"><g clip-path="url(#clip20)"><g clip-path="url(#clip21)"><path d="M590.636 378.181C580.721 382.829 568.806 378.52 564.158 368.605 559.51 358.691 563.819 346.776 573.733 342.128 583.648 337.48 595.563 341.789 600.211 351.703 604.859 361.618 600.55 373.532 590.636 378.181ZM617.462 329.873C615.011 326.99 612.18 324.47 609.19 322.39L607.663 309.363 595.087 304.815 585.581 313.852C581.802 313.608 578.013 313.735 574.286 314.383L564.249 306.262 552.231 311.896 551.903 324.877C549.021 327.327 546.5 330.158 544.421 333.149L531.393 334.675 526.845 347.252 535.883 356.758C535.639 360.537 535.766 364.325 536.414 368.053L528.293 378.09 533.927 390.108 546.907 390.436C549.358 393.318 552.189 395.839 555.179 397.918L556.706 410.945 569.283 415.494 578.788 406.456C582.568 406.7 586.356 406.573 590.083 405.925L600.271 413.975 612.288 408.341 612.616 395.361C615.499 392.91 618.019 390.079 620.099 387.089L633.126 385.563 637.674 372.986 628.637 363.48C628.881 359.701 628.754 355.912 628.106 352.185L636.156 341.997 630.522 329.98 617.462 329.873Z" stroke="#10A19D" stroke-width="0.66781" stroke-linecap="round" stroke-dasharray="0 1.33562" fill="#F2F2F2"/></g></g></g><g clip-path="url(#clip22)"><g clip-path="url(#clip23)"><g clip-path="url(#clip24)"><path d="M696.407 306.805C683.218 312.988 667.368 307.256 661.185 294.067 655.001 280.878 660.733 265.028 673.922 258.844 687.112 252.661 702.962 258.393 709.145 271.582 715.329 284.771 709.596 300.622 696.407 306.805ZM732.094 242.542C728.834 238.707 725.068 235.354 721.09 232.588L719.059 215.258 702.328 209.207 689.683 221.23C684.656 220.905 679.616 221.074 674.657 221.936L661.305 211.133 645.318 218.628 644.882 235.896C641.047 239.156 637.694 242.922 634.928 246.9L617.598 248.93 611.547 265.661 623.57 278.307C623.245 283.334 623.414 288.374 624.276 293.332L613.473 306.685 620.968 322.672 638.236 323.108C641.496 326.942 645.262 330.296 649.24 333.062L651.271 350.392 668.001 356.442 680.647 344.42C685.674 344.744 690.714 344.575 695.672 343.713L709.225 354.423 725.212 346.928 725.648 329.66C729.482 326.4 732.836 322.634 735.602 318.656L752.932 316.625 758.982 299.894 746.96 287.249C747.284 282.222 747.115 277.182 746.253 272.223L756.963 258.671 749.468 242.684 732.094 242.542Z" stroke="#10A19D" stroke-width="0.888381" stroke-linecap="round" stroke-dasharray="0 1.77676" fill="#F2F2F2"/></g></g></g><path d="M449.166 339.761 640.317 373.466 831.468 339.761C833.036 339.484 834.567 339.87 835.776 340.716L838.042 344.273 838.042 536.357 838.168 537.074 838.042 537.644 838.042 537.891 837.985 537.901 837.455 540.293C836.822 541.197 835.845 541.858 834.673 542.065L650.69 574.506 650.466 574.858 641.221 576.488 640.335 576.332 639.271 576.52 630.25 574.929 629.98 574.506 445.997 542.065C444.825 541.859 443.848 541.196 443.216 540.293L442.687 537.908 442.592 537.891 442.592 537.479 442.502 537.074 442.592 536.565 442.592 344.273 444.857 340.716C446.066 339.87 447.598 339.485 449.166 339.761Z" fill="url(#fill25)" fill-rule="evenodd"/><g clip-path="url(#clip26)" filter="url(#fx2)" transform="translate(622 362)"><g clip-path="url(#clip27)"><path d="M17.2173 14.5741 17.9765 16.2802C18.1219 16.9141 18.1456 17.587 18.0256 18.2678L16.6553 26.0388 15.4526 19.2182C15.2125 17.8565 15.5471 16.5265 16.282 15.4769L17.2173 14.5741Z" fill="#3B4046" fill-rule="evenodd"/></g></g><path d="M637.536 374.688 638.38 376.584C638.541 377.288 638.568 378.036 638.434 378.793L636.912 387.427 635.576 379.849C635.309 378.336 635.68 376.858 636.497 375.692L637.536 374.688Z" fill="#3B4046" fill-rule="evenodd"/><g clip-path="url(#clip28)" filter="url(#fx3)" transform="translate(626 328)"><g clip-path="url(#clip29)"><path d="M189.091 15.5544C191.814 15.0742 194.411 16.8925 194.891 19.6158L202.803 64.487C203.283 67.2103 201.465 69.8071 198.742 70.2873L27.1803 100.538C25.8187 100.778 24.4886 100.444 23.439 99.7088L23.2291 99.3794 15.9988 55.0863 14.5584 46.9173 15.4393 46.762 15.6783 46.5312C16.2243 46.1776 16.8485 45.9253 17.5293 45.8052Z" fill="#48494A" fill-rule="evenodd"/></g></g><path d="M830.712 339.792C833.738 339.258 836.623 341.278 837.157 344.304L845.948 394.161C846.481 397.187 844.461 400.073 841.435 400.606L650.811 434.218C649.299 434.485 647.821 434.113 646.654 433.297L646.421 432.931 638.388 383.716 636.787 374.639 637.766 374.467 638.032 374.21C638.638 373.818 639.332 373.537 640.088 373.404Z" fill="#48494A" fill-rule="evenodd"/><g clip-path="url(#clip30)" filter="url(#fx4)" transform="translate(421 327)"><g clip-path="url(#clip31)"><path d="M198.023 45.9956 198.055 46.0261 198.076 46.0738 198.042 46.1071ZM28.6429 14.6686 194.823 43.9672C195.504 44.0873 196.128 44.3396 196.674 44.6931L196.949 44.9589 198.082 45.1584 192.235 78.3154 189.087 97.5959 188.912 97.8709C187.862 98.6059 186.532 98.9404 185.171 98.7003L18.9909 69.4018C16.2673 68.9216 14.449 66.3248 14.9292 63.6014L22.8422 18.7301C23.3224 16.0068 25.9195 14.1885 28.6429 14.6686Z" fill="#505152" fill-rule="evenodd"/></g></g><path d="M637.49 374.599 637.525 374.633 637.549 374.686 637.51 374.723ZM449.29 339.792 633.934 372.345C634.69 372.479 635.384 372.759 635.991 373.152L636.297 373.447 637.555 373.669 631.059 410.51 627.561 431.933 627.367 432.238C626.2 433.055 624.722 433.427 623.209 433.16L438.565 400.606C435.539 400.073 433.519 397.187 434.052 394.161L442.844 344.304C443.378 341.278 446.264 339.258 449.29 339.792Z" fill="#505152" fill-rule="evenodd"/><path d="M639.984 576.599 637.5 375.5" stroke="#505152" stroke-width="0.333333" stroke-miterlimit="8" stroke-dasharray="0.333333 0.333333" fill="none" fill-rule="evenodd"/><g clip-path="url(#clip32)"><g clip-path="url(#clip33)"><g clip-path="url(#clip34)"><path d="M701.37 281.167C702.755 278.435 703.848 275.857 703.498 272.715 703.109 269.191 701.401 265.924 698.36 264.032 695.319 262.141 691.678 261.459 688.159 262.069 685.113 262.681 681.768 264.789 680.417 267.683 681.805 265.643 683.977 264.259 686.441 263.883 688.905 263.507 691.383 264.191 693.31 265.744 695.146 267.182 696.108 269.557 696.42 271.846 696.733 274.135 695.754 276.076 694.807 278.104L690.929 276.295 694.748 286.795C694.748 286.795 703.454 283.629 705.248 282.977L701.37 281.167Z" fill="#10A19D" fill-opacity="0.2"/></g></g></g><g clip-path="url(#clip35)"><g clip-path="url(#clip36)"><g clip-path="url(#clip37)"><path d="M572.915 350.202C574.216 347.918 575.544 345.915 577.96 344.678 580.669 343.29 583.817 342.967 586.611 344.249 589.404 345.532 591.616 347.817 592.844 350.625 593.847 353.097 593.92 356.49 592.487 358.827 593.291 356.867 593.255 354.657 592.358 352.714 591.446 350.796 589.798 349.321 587.759 348.7 585.861 348.066 583.705 348.5 581.918 349.36 580.131 350.22 579.218 351.815 578.214 353.453L581.345 355.374 572.018 357.608C572.018 357.608 570.165 349.875 569.783 348.282L572.915 350.202Z" fill="#10A19D" fill-opacity="0.2"/></g></g></g></g></svg>